<svg width="512" height="512" viewBox="0 0 512 512" fill="none" xmlns="http://www.w3.org/2000/svg">
  <defs>
    <!-- Gradient Background -->
    <linearGradient id="bgGradient512" x1="0%" y1="0%" x2="100%" y2="100%">
      <stop offset="0%" style="stop-color:#0066CC;stop-opacity:1" />
      <stop offset="100%" style="stop-color:#00A896;stop-opacity:1" />
    </linearGradient>

    <!-- Soft shadow filter -->
    <filter id="softShadow512" x="-50%" y="-50%" width="200%" height="200%">
      <feGaussianBlur in="SourceAlpha" stdDeviation="6"/>
      <feOffset dx="0" dy="4" result="offsetblur"/>
      <feComponentTransfer>
        <feFuncA type="linear" slope="0.25"/>
      </feComponentTransfer>
      <feMerge>
        <feMergeNode/>
        <feMergeNode in="SourceGraphic"/>
      </feMerge>
    </filter>
  </defs>

  <!-- Rounded Rectangle Background -->
  <rect width="512" height="512" rx="112" fill="url(#bgGradient512)"/>

  <!-- Bootstrap Icons heart-pulse-fill - exact from official library, scaled up -->
  <g transform="translate(256, 256) scale(20)">
    <g transform="translate(-8, -8)">
      <path d="M1.475 9C2.702 10.84 4.779 12.871 8 15c3.221-2.129 5.298-4.16 6.525-6H12a.5.5 0 0 1-.464-.314l-1.457-3.642-1.598 5.593a.5.5 0 0 1-.945.049L5.889 6.568l-1.473 2.21A.5.5 0 0 1 4 9z" fill="white"/>
      <path d="M.88 8C-2.427 1.68 4.41-2 7.823 1.143q.09.083.176.171a3 3 0 0 1 .176-.17C11.59-2 18.426 1.68 15.12 8h-2.783l-1.874-4.686a.5.5 0 0 0-.945.049L7.921 8.956 6.464 5.314a.5.5 0 0 0-.88-.091L3.732 8z" fill="white"/>
    </g>
  </g>
</svg>
