<svg width="512" height="512" viewBox="0 0 512 512" fill="none" xmlns="http://www.w3.org/2000/svg">
  <!-- Gradient Background -->
  <defs>
    <linearGradient id="bgGradient512" x1="0%" y1="0%" x2="100%" y2="100%">
      <stop offset="0%" style="stop-color:#0066CC;stop-opacity:1" />
      <stop offset="100%" style="stop-color:#00A896;stop-opacity:1" />
    </linearGradient>
    <filter id="shadow512" x="-50%" y="-50%" width="200%" height="200%">
      <feGaussianBlur in="SourceAlpha" stdDeviation="8"/>
      <feOffset dx="0" dy="4" result="offsetblur"/>
      <feComponentTransfer>
        <feFuncA type="linear" slope="0.3"/>
      </feComponentTransfer>
      <feMerge>
        <feMergeNode/>
        <feMergeNode in="SourceGraphic"/>
      </feMerge>
    </filter>
  </defs>

  <!-- Rounded Rectangle Background -->
  <rect width="512" height="512" rx="112" fill="url(#bgGradient512)"/>

  <!-- Medical Cross (subtle, background) -->
  <g opacity="0.15">
    <rect x="234" y="106" width="44" height="300" rx="12" fill="white"/>
    <rect x="106" y="234" width="300" height="44" rx="12" fill="white"/>
  </g>

  <!-- ML Monogram -->
  <text x="256" y="350" font-family="system-ui, -apple-system, sans-serif" font-size="192" font-weight="700" fill="white" text-anchor="middle" filter="url(#shadow512)">ML</text>

  <!-- Subtle Stethoscope Icon -->
  <g transform="translate(256, 112)" opacity="0.9">
    <circle cx="0" cy="0" r="22" fill="none" stroke="white" stroke-width="7"/>
    <path d="M 0 22 Q -22 38, -22 60 L -22 76 Q -22 86, -10 86 L 10 86 Q 22 86, 22 76 L 22 60 Q 22 38, 0 22" fill="none" stroke="white" stroke-width="7" stroke-linecap="round"/>
    <circle cx="-22" cy="76" r="8" fill="white"/>
    <circle cx="22" cy="76" r="8" fill="white"/>
  </g>
</svg>
