<svg width="180" height="180" viewBox="0 0 180 180" fill="none" xmlns="http://www.w3.org/2000/svg">
  <!-- Gradient Background -->
  <defs>
    <linearGradient id="appleBgGradient" x1="0%" y1="0%" x2="100%" y2="100%">
      <stop offset="0%" style="stop-color:#0066CC;stop-opacity:1" />
      <stop offset="100%" style="stop-color:#00A896;stop-opacity:1" />
    </linearGradient>
    <filter id="appleShadow" x="-50%" y="-50%" width="200%" height="200%">
      <feGaussianBlur in="SourceAlpha" stdDeviation="3"/>
      <feOffset dx="0" dy="2" result="offsetblur"/>
      <feComponentTransfer>
        <feFuncA type="linear" slope="0.3"/>
      </feComponentTransfer>
      <feMerge>
        <feMergeNode/>
        <feMergeNode in="SourceGraphic"/>
      </feMerge>
    </filter>
  </defs>

  <!-- Rounded Rectangle Background (iOS style) -->
  <rect width="180" height="180" rx="40" fill="url(#appleBgGradient)"/>

  <!-- Medical Cross (subtle, background) -->
  <g opacity="0.15">
    <rect x="82" y="38" width="16" height="104" rx="4" fill="white"/>
    <rect x="38" y="82" width="104" height="16" rx="4" fill="white"/>
  </g>

  <!-- ML Monogram -->
  <text x="90" y="122" font-family="system-ui, -apple-system, sans-serif" font-size="68" font-weight="700" fill="white" text-anchor="middle" filter="url(#appleShadow)">ML</text>

  <!-- Subtle Stethoscope Icon -->
  <g transform="translate(90, 40)" opacity="0.9">
    <circle cx="0" cy="0" r="8" fill="none" stroke="white" stroke-width="2.5"/>
    <path d="M 0 8 Q -8 14, -8 22 L -8 28 Q -8 32, -4 32 L 4 32 Q 8 32, 8 28 L 8 22 Q 8 14, 0 8" fill="none" stroke="white" stroke-width="2.5" stroke-linecap="round"/>
    <circle cx="-8" cy="28" r="3" fill="white"/>
    <circle cx="8" cy="28" r="3" fill="white"/>
  </g>
</svg>
