<svg width="1200" height="630" viewBox="0 0 1200 630" fill="none" xmlns="http://www.w3.org/2000/svg">
  <!-- Gradient Background -->
  <defs>
    <linearGradient id="ogBgGradient" x1="0%" y1="0%" x2="100%" y2="100%">
      <stop offset="0%" style="stop-color:#0066CC;stop-opacity:1" />
      <stop offset="50%" style="stop-color:#0077DD;stop-opacity:1" />
      <stop offset="100%" style="stop-color:#00A896;stop-opacity:1" />
    </linearGradient>
    <filter id="textShadow" x="-50%" y="-50%" width="200%" height="200%">
      <feGaussianBlur in="SourceAlpha" stdDeviation="4"/>
      <feOffset dx="0" dy="3" result="offsetblur"/>
      <feComponentTransfer>
        <feFuncA type="linear" slope="0.4"/>
      </feComponentTransfer>
      <feMerge>
        <feMergeNode/>
        <feMergeNode in="SourceGraphic"/>
      </feMerge>
    </filter>
    <filter id="iconShadow" x="-50%" y="-50%" width="200%" height="200%">
      <feGaussianBlur in="SourceAlpha" stdDeviation="6"/>
      <feOffset dx="0" dy="4" result="offsetblur"/>
      <feComponentTransfer>
        <feFuncA type="linear" slope="0.3"/>
      </feComponentTransfer>
      <feMerge>
        <feMergeNode/>
        <feMergeNode in="SourceGraphic"/>
      </feMerge>
    </filter>
  </defs>

  <!-- Background -->
  <rect width="1200" height="630" fill="url(#ogBgGradient)"/>

  <!-- Decorative Pattern (subtle medical icons) -->
  <g opacity="0.08">
    <!-- Left side -->
    <circle cx="100" cy="100" r="60" fill="white"/>
    <rect x="85" y="50" width="30" height="100" rx="8" fill="white"/>
    <rect x="50" y="85" width="100" height="30" rx="8" fill="white"/>

    <!-- Right side -->
    <circle cx="1100" cy="530" r="60" fill="white"/>
    <rect x="1085" y="480" width="30" height="100" rx="8" fill="white"/>
    <rect x="1050" y="515" width="100" height="30" rx="8" fill="white"/>
  </g>

  <!-- App Icon (left side) -->
  <g transform="translate(180, 200)" filter="url(#iconShadow)">
    <rect width="230" height="230" rx="50" fill="white" opacity="0.95"/>
    <rect x="10" y="10" width="210" height="210" rx="45" fill="url(#ogBgGradient)"/>

    <!-- Medical Cross (subtle) -->
    <g opacity="0.12">
      <rect x="98" y="50" width="24" height="150" rx="6" fill="white"/>
      <rect x="50" y="98" width="150" height="24" rx="6" fill="white"/>
    </g>

    <!-- ML Monogram -->
    <text x="115" y="165" font-family="system-ui, -apple-system, sans-serif" font-size="96" font-weight="700" fill="white" text-anchor="middle">ML</text>

    <!-- Stethoscope -->
    <g transform="translate(115, 65)" opacity="0.9">
      <circle cx="0" cy="0" r="12" fill="none" stroke="white" stroke-width="4"/>
      <path d="M 0 12 Q -12 20, -12 32 L -12 42 Q -12 48, -6 48 L 6 48 Q 12 48, 12 42 L 12 32 Q 12 20, 0 12" fill="none" stroke="white" stroke-width="4" stroke-linecap="round"/>
      <circle cx="-12" cy="42" r="4" fill="white"/>
      <circle cx="12" cy="42" r="4" fill="white"/>
    </g>
  </g>

  <!-- Text Content (right side) -->
  <g filter="url(#textShadow)">
    <!-- Title -->
    <text x="480" y="260" font-family="system-ui, -apple-system, sans-serif" font-size="82" font-weight="700" fill="white" letter-spacing="-1">
      Lara's MedLearn
    </text>

    <!-- Tagline -->
    <text x="480" y="330" font-family="system-ui, -apple-system, sans-serif" font-size="36" font-weight="400" fill="white" opacity="0.95">
      Unified Medical Education Platform
    </text>

    <!-- Features -->
    <g opacity="0.9">
      <text x="480" y="395" font-family="system-ui, -apple-system, sans-serif" font-size="26" font-weight="500" fill="white">
        ✓ Histology · Physiology · Sociology · Anatomy
      </text>
      <text x="480" y="435" font-family="system-ui, -apple-system, sans-serif" font-size="26" font-weight="500" fill="white">
        ✓ Community · Study Tools · Exam Prep
      </text>
      <text x="480" y="475" font-family="system-ui, -apple-system, sans-serif" font-size="26" font-weight="500" fill="white">
        ✓ 100% Free for Medical Students
      </text>
    </g>
  </g>
</svg>
