<svg width="1200" height="630" viewBox="0 0 1200 630" fill="none" xmlns="http://www.w3.org/2000/svg">
  <!-- Gradient Background -->
  <defs>
    <linearGradient id="ogBgGradient" x1="0%" y1="0%" x2="100%" y2="100%">
      <stop offset="0%" style="stop-color:#0066CC;stop-opacity:1" />
      <stop offset="50%" style="stop-color:#0077DD;stop-opacity:1" />
      <stop offset="100%" style="stop-color:#00A896;stop-opacity:1" />
    </linearGradient>
    <filter id="textShadow" x="-50%" y="-50%" width="200%" height="200%">
      <feGaussianBlur in="SourceAlpha" stdDeviation="4"/>
      <feOffset dx="0" dy="3" result="offsetblur"/>
      <feComponentTransfer>
        <feFuncA type="linear" slope="0.4"/>
      </feComponentTransfer>
      <feMerge>
        <feMergeNode/>
        <feMergeNode in="SourceGraphic"/>
      </feMerge>
    </filter>
    <filter id="iconShadow" x="-50%" y="-50%" width="200%" height="200%">
      <feGaussianBlur in="SourceAlpha" stdDeviation="6"/>
      <feOffset dx="0" dy="4" result="offsetblur"/>
      <feComponentTransfer>
        <feFuncA type="linear" slope="0.3"/>
      </feComponentTransfer>
      <feMerge>
        <feMergeNode/>
        <feMergeNode in="SourceGraphic"/>
      </feMerge>
    </filter>
  </defs>

  <!-- Background -->
  <rect width="1200" height="630" fill="url(#ogBgGradient)"/>

  <!-- Decorative Pattern (subtle medical icons) -->
  <g opacity="0.08">
    <!-- Left side -->
    <circle cx="100" cy="100" r="60" fill="white"/>
    <rect x="85" y="50" width="30" height="100" rx="8" fill="white"/>
    <rect x="50" y="85" width="100" height="30" rx="8" fill="white"/>

    <!-- Right side -->
    <circle cx="1100" cy="530" r="60" fill="white"/>
    <rect x="1085" y="480" width="30" height="100" rx="8" fill="white"/>
    <rect x="1050" y="515" width="100" height="30" rx="8" fill="white"/>
  </g>

  <!-- App Icon (left side) - Redesigned with clean stethoscope -->
  <g transform="translate(180, 200)" filter="url(#iconShadow)">
    <rect width="230" height="230" rx="50" fill="white" opacity="0.95"/>
    <rect x="10" y="10" width="210" height="210" rx="45" fill="url(#ogBgGradient)"/>

    <!-- Bootstrap Icons heart-pulse-fill - exact from official library, scaled up -->
    <g transform="translate(115, 115) scale(8)">
      <g transform="translate(-8, -8)">
        <path d="M1.475 9C2.702 10.84 4.779 12.871 8 15c3.221-2.129 5.298-4.16 6.525-6H12a.5.5 0 0 1-.464-.314l-1.457-3.642-1.598 5.593a.5.5 0 0 1-.945.049L5.889 6.568l-1.473 2.21A.5.5 0 0 1 4 9z" fill="white"/>
        <path d="M.88 8C-2.427 1.68 4.41-2 7.823 1.143q.09.083.176.171a3 3 0 0 1 .176-.17C11.59-2 18.426 1.68 15.12 8h-2.783l-1.874-4.686a.5.5 0 0 0-.945.049L7.921 8.956 6.464 5.314a.5.5 0 0 0-.88-.091L3.732 8z" fill="white"/>
      </g>
    </g>
  </g>

  <!-- Text Content (right side) -->
  <g filter="url(#textShadow)">
    <!-- Title -->
    <text x="480" y="260" font-family="system-ui, -apple-system, sans-serif" font-size="82" font-weight="700" fill="white" letter-spacing="-1">
      Lara's MedLearn
    </text>

    <!-- Tagline -->
    <text x="480" y="330" font-family="system-ui, -apple-system, sans-serif" font-size="36" font-weight="400" fill="white" opacity="0.95">
      Unified Medical Education Platform
    </text>

    <!-- Features -->
    <g opacity="0.9">
      <text x="480" y="395" font-family="system-ui, -apple-system, sans-serif" font-size="26" font-weight="500" fill="white">
        ✓ Histology · Physiology · Sociology · Anatomy
      </text>
      <text x="480" y="435" font-family="system-ui, -apple-system, sans-serif" font-size="26" font-weight="500" fill="white">
        ✓ Community · Study Tools · Exam Prep
      </text>
      <text x="480" y="475" font-family="system-ui, -apple-system, sans-serif" font-size="26" font-weight="500" fill="white">
        ✓ 100% Free for Medical Students
      </text>
    </g>
  </g>
</svg>
